<svg width="34" height="33" viewBox="0 0 34 33" fill="none" xmlns="http://www.w3.org/2000/svg">
<g filter="url(#filter0_d_286_88)">
<path d="M29.9558 12.5275L29.9337 12.5386L26.2036 3.25484H27.9056C28.2108 3.25484 28.4582 3.00741 28.4582 2.70223C28.4582 2.39706 28.2108 2.14963 27.9056 2.14963H17.5056V0.552604C17.5056 0.247428 17.2582 0 16.953 0C16.6479 0 16.4004 0.247428 16.4004 0.552604V2.1441H6.00595C5.70078 2.1441 5.45335 2.39153 5.45335 2.69671C5.45335 3.00188 5.70078 3.24931 6.00595 3.24931H7.77981L4.04421 12.5275C4.01658 12.5922 4.00159 12.6617 4 12.732C4 15.2697 6.0572 17.3269 8.5949 17.3269C11.1326 17.3269 13.1898 15.2697 13.1898 12.732C13.1882 12.6617 13.1732 12.5922 13.1456 12.5275L9.41552 3.24378H16.4004V20.3303C13.7645 20.5292 11.7033 22.1318 11.7033 24.0714C11.7033 24.3766 11.9507 24.624 12.2559 24.624H21.6502C21.9553 24.624 22.2028 24.3766 22.2028 24.0714C22.2028 22.1318 20.1416 20.5292 17.5056 20.3303V3.24378H24.5624L20.8544 12.5275C20.8268 12.5922 20.8118 12.6617 20.8102 12.732C20.8102 15.2697 22.8674 17.3269 25.4051 17.3269C27.9428 17.3269 30 15.2697 30 12.732C29.9984 12.6617 29.9834 12.5922 29.9558 12.5275ZM8.59214 16.23C6.88058 16.2276 5.42295 14.9852 5.14942 13.2956H12.0128C11.7406 14.977 10.2953 16.2168 8.59214 16.23ZM11.8138 12.1904H5.38151L8.60319 4.17216L11.8138 12.1904ZM20.9981 23.5188H12.9024C13.3114 22.3307 14.9968 21.4134 16.9475 21.4134C18.8982 21.4134 20.5892 22.3307 20.9981 23.5188ZM25.3802 4.17768L28.5909 12.1904H22.1586L25.3802 4.17768ZM25.3802 16.23V16.2355C23.6752 16.2219 22.2294 14.9792 21.9596 13.2956H28.823C28.5494 14.9852 27.0918 16.2276 25.3802 16.23Z" fill="black"/>
</g>
<defs>
<filter id="filter0_d_286_88" x="0" y="0" width="34" height="32.624" filterUnits="userSpaceOnUse" color-interpolation-filters="sRGB">
<feFlood flood-opacity="0" result="BackgroundImageFix"/>
<feColorMatrix in="SourceAlpha" type="matrix" values="0 0 0 0 0 0 0 0 0 0 0 0 0 0 0 0 0 0 127 0" result="hardAlpha"/>
<feOffset dy="4"/>
<feGaussianBlur stdDeviation="2"/>
<feComposite in2="hardAlpha" operator="out"/>
<feColorMatrix type="matrix" values="0 0 0 0 0 0 0 0 0 0 0 0 0 0 0 0 0 0 0.25 0"/>
<feBlend mode="normal" in2="BackgroundImageFix" result="effect1_dropShadow_286_88"/>
<feBlend mode="normal" in="SourceGraphic" in2="effect1_dropShadow_286_88" result="shape"/>
</filter>
</defs>
</svg>
